HIERARCHY
ROOT hip
{
  OFFSET 0 0 0
  CHANNELS 6 Xposition Yposition Zposition Zrotation Yrotation Xrotation
  JOINT abdomen
  {
    OFFSET 0 20.6881 -0.73152
    CHANNELS 3 Zrotation Xrotation Yrotation
    JOINT chest
    {
      OFFSET 0 11.7043 -0.48768
      CHANNELS 3 Zrotation Xrotation Yrotation
      JOINT neck
      {
        OFFSET 0 22.1894 -2.19456
        CHANNELS 3 Zrotation Xrotation Yrotation
        JOINT head
        {
          OFFSET -0.24384 7.07133 1.2192
          CHANNELS 3 Zrotation Xrotation Yrotation
          JOINT leftEye
          {
            OFFSET 4.14528 8.04674 8.04672
            CHANNELS 3 Zrotation Xrotation Yrotation
            End Site
            {
              OFFSET 1 0 0
            }
          }
          JOINT rightEye
          {
            OFFSET -3.6576 8.04674 8.04672
            CHANNELS 3 Zrotation Xrotation Yrotation
            End Site
            {
              OFFSET 1 0 0
            }
          }
        }
      }
      JOINT rCollar
      {
        OFFSET -2.68224 19.2634 -4.8768
        CHANNELS 3 Zrotation Xrotation Yrotation
        JOINT rShldr
        {
          OFFSET -8.77824 -1.95073 1.46304
          CHANNELS 3 Zrotation Xrotation Yrotation
          JOINT rForeArm
          {
            OFFSET -28.1742 -1.7115 0.48768
            CHANNELS 3 Zrotation Xrotation Yrotation
            JOINT rHand
            {
              OFFSET -22.5879 0.773209 7.07136
              CHANNELS 3 Zrotation Xrotation Yrotation
              JOINT rThumb1
              {
                OFFSET -1.2192 -0.487915 3.41376
                CHANNELS 3 Zrotation Xrotation Yrotation
                JOINT rThumb2
                {
                  OFFSET -3.37035 -0.52449 3.41376
                  CHANNELS 3 Zrotation Xrotation Yrotation
                  End Site
                  {
                    OFFSET -1.78271 -1.18214 1.43049
                  }
                }
              }
              JOINT rIndex1
              {
                OFFSET -7.75947 0.938293 5.60832
                CHANNELS 3 Zrotation Xrotation Yrotation
                JOINT rIndex2
                {
                  OFFSET -2.54057 -0.884171 1.56538
                  CHANNELS 3 Zrotation Xrotation Yrotation
                  End Site
                  {
                    OFFSET -1.62519 -0.234802 1.16502
                  }
                }
              }
              JOINT rMid1
              {
                OFFSET -8.24714 1.18213 3.41376
                CHANNELS 3 Zrotation Xrotation Yrotation
                JOINT rMid2
                {
                  OFFSET -3.10165 -0.590103 1.0647
                  CHANNELS 3 Zrotation Xrotation Yrotation
                  End Site
                  {
                    OFFSET -2.48547 -0.328903 0.83742
                  }
                }
              }
              JOINT rRing1
              {
                OFFSET -8.82822 0.546677 1.51678
                CHANNELS 3 Zrotation Xrotation Yrotation
                JOINT rRing2
                {
                  OFFSET -2.60934 -0.819778 -0.0198488
                  CHANNELS 3 Zrotation Xrotation Yrotation
                  End Site
                  {
                    OFFSET -2.33842 -0.294052 0.168128
                  }
                }
              }
              JOINT rPinky1
              {
                OFFSET -8.27202 -0.0477905 -0.4584
                CHANNELS 3 Zrotation Xrotation Yrotation
                JOINT rPinky2
                {
                  OFFSET -1.82734 -0.647385 -0.700984
                  CHANNELS 3 Zrotation Xrotation Yrotation
                  End Site
                  {
                    OFFSET -1.69225 -0.51767 -0.607171
                  }
                }
              }
            }
          }
        }
      }
      JOINT lCollar
      {
        OFFSET 2.68224 19.2634 -4.8768
        CHANNELS 3 Zrotation Xrotation Yrotation
        JOINT lShldr
        {
          OFFSET 8.77824 -1.95073 1.46304
          CHANNELS 3 Zrotation Xrotation Yrotation
          JOINT lForeArm
          {
            OFFSET 28.1742 -1.7115 0.48768
            CHANNELS 3 Zrotation Xrotation Yrotation
            JOINT lHand
            {
              OFFSET 22.5879 0.773209 7.07136
              CHANNELS 3 Zrotation Xrotation Yrotation
              JOINT lThumb1
              {
                OFFSET 1.2192 -0.487915 3.41376
                CHANNELS 3 Zrotation Xrotation Yrotation
                JOINT lThumb2
                {
                  OFFSET 3.37035 -0.52449 3.41376
                  CHANNELS 3 Zrotation Xrotation Yrotation
                  End Site
                  {
                    OFFSET 1.78271 -1.18214 1.43049
                  }
                }
              }
              JOINT lIndex1
              {
                OFFSET 7.75947 0.938293 5.60832
                CHANNELS 3 Zrotation Xrotation Yrotation
                JOINT lIndex2
                {
                  OFFSET 2.54057 -0.884171 1.56538
                  CHANNELS 3 Zrotation Xrotation Yrotation
                  End Site
                  {
                    OFFSET 1.62519 -0.234802 1.16502
                  }
                }
              }
              JOINT lMid1
              {
                OFFSET 8.24714 1.18213 3.41376
                CHANNELS 3 Zrotation Xrotation Yrotation
                JOINT lMid2
                {
                  OFFSET 3.10165 -0.590103 1.0647
                  CHANNELS 3 Zrotation Xrotation Yrotation
                  End Site
                  {
                    OFFSET 2.48547 -0.328903 0.83742
                  }
                }
              }
              JOINT lRing1
              {
                OFFSET 8.82822 0.546677 1.51678
                CHANNELS 3 Zrotation Xrotation Yrotation
                JOINT lRing2
                {
                  OFFSET 2.60934 -0.819778 -0.0198488
                  CHANNELS 3 Zrotation Xrotation Yrotation
                  End Site
                  {
                    OFFSET 2.33842 -0.294052 0.168128
                  }
                }
              }
              JOINT lPinky1
              {
                OFFSET 8.27202 -0.0477905 -0.4584
                CHANNELS 3 Zrotation Xrotation Yrotation
                JOINT lPinky2
                {
                  OFFSET 1.82734 -0.647385 -0.700984
                  CHANNELS 3 Zrotation Xrotation Yrotation
                  End Site
                  {
                    OFFSET 1.69225 -0.51767 -0.607171
                  }
                }
              }
            }
          }
        }
      }
    }
  }
  JOINT rButtock
  {
    OFFSET -8.77824 4.35084 1.2192
    CHANNELS 3 Zrotation Xrotation Yrotation
    JOINT rThigh
    {
      OFFSET 0 -1.70687 -2.19456
      CHANNELS 3 Zrotation Xrotation Yrotation
      JOINT rShin
      {
        OFFSET 0 -36.8199 0.73152
        CHANNELS 3 Zrotation Xrotation Yrotation
        JOINT rFoot
        {
          OFFSET 0.73152 -45.1104 -5.12064
          CHANNELS 3 Zrotation Xrotation Yrotation
          End Site
          {
            OFFSET -1.1221 -3.69964 12.103
          }
        }
      }
    }
  }
  JOINT lButtock
  {
    OFFSET 8.77824 4.35084 1.2192
    CHANNELS 3 Zrotation Xrotation Yrotation
    JOINT lThigh
    {
      OFFSET 0 -1.70687 -2.19456
      CHANNELS 3 Zrotation Xrotation Yrotation
      JOINT lShin
      {
        OFFSET 0 -36.8199 0.73152
        CHANNELS 3 Zrotation Xrotation Yrotation
        JOINT lFoot
        {
          OFFSET -0.73152 -45.1104 -5.12064
          CHANNELS 3 Zrotation Xrotation Yrotation
          End Site
          {
            OFFSET 1.1221 -3.69964 12.103
          }
        }
      }
    }
  }
}
MOTION
Frames:	7
Frame Time:	0.03333
0.0 0.0 0.0 0.0 0.0 0.0 0.0 0.0 0.0 0.0 0.0 0.0 0.0 0.0 0.0 0.0 0.0 0.0 0.0 0.0 0.0 0.0 0.0 0.0 0.0 0.0 0.0 0.0 0.0 0.0 0.0 0.0 0.0 0.0 0.0 0.0 0.0 0.0 0.0 0.0 0.0 0.0 0.0 0.0 0.0 0.0 0.0 0.0 0.0 0.0 0.0 0.0 0.0 0.0 0.0 0.0 0.0 0.0 0.0 0.0 0.0 0.0 0.0 0.0 0.0 0.0 0.0 0.0 0.0 0.0 0.0 0.0 0.0 0.0 0.0 0.0 0.0 0.0 0.0 0.0 0.0 0.0 0.0 0.0 0.0 0.0 0.0 0.0 0.0 0.0 0.0 0.0 0.0 0.0 0.0 0.0 0.0 0.0 0.0 0.0 0.0 0.0 0.0 0.0 0.0 0.0 0.0 0.0 0.0 0.0 0.0 0.0 0.0 0.0 0.0 0.0 0.0 0.0 0.0 0.0 0.0 0.0 0.0 0.0 0.0 0.0 0.0 0.0 0.0 0.0 0.0 0.0
0.0091 65.0902 0.012 -2.170753 62.779244 -3.069578 1.494431 3.919825 -0.0 1.04373 8.122675 -9.493503 -10.76753 -5.245907 -106.094717 43.958416 -4.726574 65.493344 -129.957585 21.879358 44.989586 42.477363 -26.238251 -61.898978 74.732694 28.239098 14.437136 -168.152493 -0.324054 176.535435 -95.897533 -54.227783 57.472666 129.404449 -10.198059 59.313245 -3.550471 -24.400737 33.337996 -24.513675 43.074795 167.050978 159.641391 29.89171 -128.129576 174.941814 59.842622 -12.398513 -5.541223 46.951164 -129.788049 -171.762967 -35.046595 113.051694 168.227313 5.892628 -98.40048 146.024933 -0.509214 178.022681 -177.732374 33.896714 -70.95672 -119.805785 56.158965 154.497726 76.883446 -37.002733 -166.197356 171.08758 -46.501891 -164.35792 1.611083 -13.3495 -159.045004 105.809375 76.046784 -6.496067 176.822031 -8.582831 -42.231944 -28.78433 -60.294058 75.392531 165.552773 -42.970524 -43.824531 -43.603445 26.550183 169.290308 -164.770403 -39.103833 79.269311 59.997566 -58.646376 156.046264 -86.065245 2.333984 80.225248 31.295574 82.379949 -91.817023 -144.332446 33.588862 63.097702 -8.70304 -0.541773 10.374593 -54.941961 -4.091204 -91.494761 -7.487805 54.583531 -150.303187 -2.495437 4.234656 -145.180233 50.34272 -52.772434 -117.733592 35.486616 -0.129769 90.010751 2.961394 37.529748 -1.758336 -4.209126 -9.662727 -32.303859 16.647098 78.435156 -26.499909
-1.6028 60.001099999999994 0.0036999999999999997 -12.569408 22.340574 -3.784805 6.574963 9.986614 146.390277 -3.003014 -1.448628 -137.460408 -14.528092 27.02008 -85.324177 48.118408 13.768349 85.881535 23.230939 -6.915909 -32.763497 -21.064553 -1.127522 6.059041 -163.532938 -28.399428 169.053551 134.023126 0.234866 178.403817 1.103518 -6.509431 98.708213 -1.78796 -7.675285 -7.91703 -175.919763 1.643528 90.409664 -118.988766 5.119865 2.349029 -175.961531 -59.510769 123.814041 -3.267468 34.226809 31.940875 -154.102065 -51.217525 169.198335 -171.500358 -64.164092 115.015245 -156.064122 -0.609798 178.822658 -96.221555 57.397782 82.06908 10.511078 49.691647 2.277607 -145.530847 38.429121 -162.995025 2.437288 -61.744816 19.259936 11.277035 -72.072796 65.6961 -120.175738 47.358231 79.532918 11.86581 59.629613 4.103446 -176.495165 -34.408745 -81.38186 22.019014 32.095891 -26.19014 -42.237594 -64.886141 2.514872 10.17754 -1.654002 -48.725607 -3.410588 -27.471116 -3.676251 53.622431 59.313059 -27.586918 2.241433 -27.906853 -0.722467 -11.816756 1.112019 -13.148019 98.962263 -54.629922 42.302648 -150.917305 51.764711 48.292238 -143.161153 75.868431 -25.369789 113.899043 52.919952 60.198789 15.919337 42.480147 -54.14552 65.313079 0.380506 11.786176 -0.148533 4.454217 1.911843 59.107238 -46.366142 51.256902 16.699948 66.586959 48.320161 -165.944313 -49.144398 72.129891
-3.3868 61.6174 0.0104 -14.490768 17.99705 -7.051729 12.946582 14.71871 -136.486155 3.073754 -0.828989 144.49354 -3.179855 32.974678 -163.307002 6.723466 52.213501 -178.339146 45.690804 -3.362101 -7.969829 3.624914 1.489232 44.657734 -161.658975 -49.641092 165.438618 -46.312644 21.372042 -12.342048 -179.252282 29.039129 -80.424426 -17.555863 -7.845892 -13.724737 21.117172 1.012285 -10.106382 -97.232453 31.445628 65.768771 -6.163726 -62.689472 -86.478255 70.871371 23.741908 25.854206 -171.056861 -6.391382 124.416269 86.33774 -29.732865 98.382238 4.838334 -63.253645 -0.140804 9.479965 29.113454 -61.847179 -6.763768 -17.731688 10.191856 -25.563656 -9.29522 -42.178564 105.920252 -77.776401 131.574234 169.435006 42.532132 145.56935 47.494005 -6.227256 -12.761232 -18.064378 -30.955591 -7.553235 146.340639 24.227436 -99.638161 41.035707 -37.309544 26.1021 87.245494 63.17051 -82.149897 128.584174 -82.409179 155.194892 0.97049 59.98779 -10.381283 169.18472 23.158305 -132.548359 -22.839439 -0.352548 7.052544 45.322808 81.729411 -15.46799 122.595841 59.811338 -171.177234 148.335133 53.774141 177.829849 2.024729 -20.827702 -1.714508 -27.624743 21.320666 55.210461 49.825285 24.90628 76.781015 -93.325644 -4.911948 -164.742082 149.223208 45.68281 8.535844 -115.602439 -27.779703 77.410762 79.500679 6.696988 28.183446 -26.486014 -12.668381 -140.459805
-4.3047 58.396 -0.6268 -13.178592 19.567734 -4.139667 6.184886 13.350413 135.053876 -5.368419 1.792545 -125.259974 5.479495 19.130407 98.079028 -34.214489 5.578619 -82.900329 33.940611 1.02456 3.356537 2.076326 0.328192 17.962279 -11.520336 41.01067 20.190713 -87.810025 38.35684 156.485442 -133.855431 -13.29444 -59.05772 -2.418848 -61.609033 -13.708559 6.62267 24.320586 28.53755 -151.364381 4.288449 149.314284 -66.648024 -28.251886 -159.603501 -54.889022 -81.179 163.864875 89.872535 -53.203007 71.275209 -47.939096 -6.209156 -40.416237 -145.484166 22.036961 163.676849 -38.650796 23.83425 48.469168 -35.74023 -31.424861 -26.348634 11.874046 -1.755311 -15.402105 -10.919905 -13.801592 6.198097 132.131027 -20.84443 -163.445502 -6.560696 -19.811299 82.06553 -145.814851 -32.651293 -131.895852 169.217393 9.670138 -106.988666 48.531234 -1.674184 15.697781 173.646684 -27.383921 -112.296978 1.058302 10.155004 -18.006134 -0.605552 44.836716 -3.063683 89.914009 52.230979 -77.49539 120.984941 -6.718217 169.576384 111.429226 -25.313797 -175.747622 139.484164 37.039886 161.210585 52.518624 -48.683079 16.712027 -54.343015 7.655423 -23.104459 31.898847 9.390768 -5.103502 -32.890156 42.406077 -61.492863 23.363299 5.271802 80.980433 -85.515928 25.364716 -3.95378 163.248403 -20.042324 180.0 82.477667 -27.993816 74.77491 106.706135 21.867286 176.968021
-4.5779 54.4602 -1.5082 -13.790938 22.643012 -3.304287 6.307781 11.281358 123.185943 -7.694926 -0.022506 -119.126017 -19.577728 18.064834 -65.80641 37.008664 9.400812 76.80043 34.615096 0.216101 0.693491 -13.956822 -2.685528 21.681737 -151.516141 5.954907 149.742491 115.182387 -14.827806 127.452767 6.599003 -7.548803 106.700576 -5.429489 -15.307199 -4.491902 90.681958 -21.86884 22.291404 125.354909 -58.770956 133.171321 -46.146143 69.255851 49.528347 -123.246333 77.365868 79.136324 -9.999171 -5.43978 28.541335 -162.424821 16.608419 -173.875933 -170.402088 -2.09587 171.180522 -72.635529 51.76724 42.602904 11.211623 39.736535 -11.270336 -130.333918 43.990528 -178.819038 -3.308125 36.229978 -7.43177 162.531642 -22.365729 -135.148017 -154.449248 77.301782 103.005472 -1.489407 62.66691 11.831128 8.743905 -3.032522 3.715921 36.883083 12.407067 -46.652686 22.037105 -10.785171 -22.880125 135.471457 0.774395 -156.397326 18.919264 40.791048 -21.987257 -5.459186 -5.836123 -0.648374 133.2028 -1.154118 174.888615 111.185682 -43.563632 136.077714 144.108534 38.63596 148.144787 157.755881 13.201929 123.408624 -1.8629 13.84731 2.772954 -18.172679 -8.611779 -65.479163 -40.144171 33.321003 166.524984 45.312051 65.607318 -146.74882 -87.297802 19.108586 -7.542793 163.656454 -27.967999 147.982828 80.268595 4.558385 158.663039 171.96282 66.309829 -102.737193
-4.4171000000000005 52.53830000000001 -2.4188 -14.737206 26.437666 -2.56491 8.376086 9.808829 -0.0 4.425728 -7.661762 2.178314 -13.848878 12.545138 -16.667397 24.520899 -17.625995 30.35321 22.961264 2.261879 11.103325 -13.360664 -3.650075 30.437839 9.743834 -50.784186 1.721615 101.651617 33.751177 -91.054217 12.268172 2.14589 107.547453 -4.652888 -6.907608 -4.003216 95.246153 -30.310782 33.469731 142.661887 -38.464092 113.484213 -11.038723 -0.297669 9.480846 -18.586546 52.998423 -6.909112 7.495857 -25.790031 20.096943 -18.660506 62.319599 -20.585738 -30.286824 -3.852122 8.811063 109.690763 72.452142 -52.549217 -169.127308 19.606498 -125.557695 -51.498281 -28.135435 -23.899551 -4.582672 16.36267 -2.137042 137.724056 -15.637473 -143.082722 60.012871 -48.632143 125.001388 -56.380472 -50.943488 -39.990664 -1.129945 -19.571757 -5.450482 127.22642 -54.946357 -122.052306 105.960777 16.521632 -47.554969 1.665784 22.502062 -63.33694 150.676675 1.225813 -130.073593 157.403667 -17.761993 -138.64658 78.406983 69.434922 -91.551999 18.250361 24.475296 -24.815072 138.657185 75.19222 159.843168 177.100588 39.283097 91.742613 75.602838 27.712135 30.339015 -91.986562 35.139175 -171.288175 -44.742768 -36.020541 -57.009205 45.481033 7.224636 156.848815 -7.966321 19.956455 22.294501 132.411517 -65.629742 -50.236159 -34.019155 -77.062218 76.538265 -23.109025 -72.875529 66.564727
